<?xml version="1.0" encoding="utf-8"?>
<svg x="0pt" y="0pt" width="576pt" height="512pt" viewBox="0 0 576 512" xmlns="http://www.w3.org/2000/svg" xmlns:xlink="http://www.w3.org/1999/xlink">
  <g id="1">
    <title>Layer 1</title>
    <defs>
      <g id="2">
        <defs>
          <path id="3" d="M0,0 C0,0,576,0,576,0 C576,0,576,512,576,512 C576,512,0,512,0,512 C0,512,0,0,0,0 z"/>
        </defs>
        <use xlink:href="#3" style="fill:#00003d;fill-opacity:1;fill-rule:evenodd;opacity:1;stroke:none;"/>
      </g>
    </defs>
    <use xlink:href="#2"/>
    <clipPath id="5">
      <use xlink:href="#4"/>
      <path id="4" d="M0,0 C0,0,576,0,576,0 C576,0,576,512,576,512 C576,512,0,512,0,512 C0,512,0,0,0,0 z"/>
    </clipPath>
    <g id="6" style="clip-path:url(#5);">
      <title>Clipping Group</title>
      <defs>
        <title>Shape 1</title>
        <g id="7">
          <defs>
            <path id="8" d="M128,64 C92.7,64,64,92.7,64,128 C64,163.3,92.7,192,128,192 C163.3,192,192,163.3,192,128 C192,92.7,163.3,64,128,64 z M352,256 C352,256,128,256,128,256 C57.3,256,0,198.7,0,128 C0,57.3,57.3,0,128,0 C176.2,0,218.2,26.6,240,66 C261.8,26.6,303.8,0,352,0 C422.7,0,480,57.3,480,128 C480,198.7,422.7,256,352,256 z M352,64 C316.7,64,288,92.7,288,128 C288,163.3,316.7,192,352,192 C387.3,192,416,163.3,416,128 C416,92.7,387.3,64,352,64 z M558.3,259.4 C569.1,264.8,576,275.9,576,288 C576,288,576,480,576,480 C576,492.1,569.2,503.2,558.3,508.6 C547.4,514,534.5,512.9,524.8,505.6 C503.467,489.6,482.133,473.6,460.8,457.6 C460.8,457.6,448,448,448,448 C448,448,448,432,448,432 C448,432,448,336,448,336 C448,336,448,320,448,320 C452.267,316.8,456.533,313.6,460.8,310.4 C482.133,294.4,503.467,278.4,524.8,262.4 C534.5,255.1,547.5,254,558.3,259.4 z M64,288 C85.3333,288,106.667,288,128,288 C128,288,352,288,352,288 C387.3,288,416,316.7,416,352 C416,384,416,416,416,448 C416,483.3,387.3,512,352,512 C352,512,128,512,128,512 C92.7,512,64,483.3,64,448 C64,448,64,352,64,352 C64,352,32,352,32,352 C14.3,352,0,337.7,0,320 C0,302.3,14.3,288,32,288 C32,288,64,288,64,288 z"/>
          </defs>
          <use xlink:href="#8" style="fill:#8cc63f;fill-opacity:1;fill-rule:evenodd;opacity:1;stroke:none;"/>
        </g>
      </defs>
      <use xlink:href="#7"/>
    </g>
    <clipPath id="10">
      <use xlink:href="#9"/>
      <path id="9" d="M0,0 C0,0,576,0,576,0 C576,0,576,512,576,512 C576,512,0,512,0,512 C0,512,0,0,0,0 z"/>
    </clipPath>
    <g id="11" style="clip-path:url(#10);"/>
  </g>
</svg>
